<?xml version="1.0" encoding="iso-8859-1"?>
<!-- Generator: Adobe Illustrator 19.0.0, SVG Export Plug-In . SVG Version: 6.00 Build 0)  -->
<svg version="1.1" id="Layer_1" xmlns="http://www.w3.org/2000/svg" xmlns:xlink="http://www.w3.org/1999/xlink" x="0px" y="0px"
	 viewBox="0 0 512.001 512.001" style="enable-background:new 0 0 512.001 512.001;" xml:space="preserve" fill="white">
<g>
	<g>
		<path d="M363.801,0.001H54.872C24.615,0.001,0,24.616,0,54.874v402.254c0,30.256,24.615,54.872,54.872,54.872h55.403
			c5.073,0,9.186-4.113,9.186-9.186c0-5.073-4.113-9.186-9.186-9.186H54.872c-20.126,0-36.5-16.373-36.5-36.5V54.874
			c0-20.126,16.373-36.501,36.5-36.501h308.929c5.074,0,9.186-4.113,9.186-9.186C372.987,4.114,368.876,0.001,363.801,0.001z"/>
	</g>
</g>
<g>
	<g>
		<path d="M457.128,0.002h-56.581c-5.074,0-9.186,4.113-9.186,9.186c0,5.073,4.111,9.185,9.185,9.185h56.581
			c20.128,0,36.501,16.375,36.501,36.5v402.254c0,20.126-16.373,36.5-36.501,36.5H147.021c-5.073,0-9.186,4.113-9.186,9.186
			c0,5.073,4.113,9.186,9.186,9.186h310.107c30.257,0,54.873-24.615,54.873-54.872V54.874
			C512.001,24.617,487.385,0.002,457.128,0.002z"/>
	</g>
</g>
<g>
	<g>
		<path d="M320.286,256l53.998-53.998c3.587-3.588,3.587-9.404,0-12.99l-51.296-51.294c-3.586-3.588-9.403-3.588-12.99,0
			l-53.998,53.996l-53.998-53.996c-3.588-3.588-9.404-3.588-12.99,0l-51.294,51.294c-3.588,3.588-3.588,9.404,0,12.99L191.714,256
			l-53.998,53.998c-3.588,3.588-3.588,9.403,0,12.99l51.294,51.294c1.722,1.723,4.059,2.691,6.495,2.691
			c2.436,0,4.773-0.968,6.495-2.691l53.998-53.998l53.998,53.998c1.722,1.723,4.059,2.691,6.495,2.691
			c2.436,0,4.773-0.968,6.495-2.691l51.296-51.294c3.587-3.587,3.587-9.404,0-12.99L320.286,256z M316.492,354.796l-53.998-53.998
			c-1.793-1.794-4.145-2.691-6.495-2.691c-2.35,0-4.702,0.897-6.495,2.691l-53.998,53.998l-38.304-38.304l53.998-53.996
			c1.723-1.723,2.691-4.059,2.691-6.495c0-2.436-0.968-4.772-2.691-6.495l-53.998-53.998l38.304-38.304l53.998,53.998
			c3.588,3.588,9.404,3.588,12.99,0l53.998-53.998l38.304,38.304l-53.998,53.998c-1.723,1.723-2.691,4.059-2.691,6.495
			c0,2.436,0.968,4.772,2.691,6.495l53.998,53.996L316.492,354.796z"/>
	</g>
</g>
<g>
</g>
<g>
</g>
<g>
</g>
<g>
</g>
<g>
</g>
<g>
</g>
<g>
</g>
<g>
</g>
<g>
</g>
<g>
</g>
<g>
</g>
<g>
</g>
<g>
</g>
<g>
</g>
<g>
</g>
</svg>
